# xmcd
#
# Track frame offsets: 
#        150
#        18205
#        37847
#        56805
#        78497
#        99155
#        122215
#        139667
#        171702
#        193082
#        215355
#        234072
#        255555
#        272482
#        306975
#
# Disc length: 4395 seconds
#
# Revision: 1
# Processed by: cddbd v1.5.2PL0 Copyright (c) Steve Scherf et al.
# Submitted via: ExactAudioCopy v0.99pb5
#
DISCID=c811290f
DTITLE=Various Artist - Hot Soca Party - 15 Giant Caribbean Hits
DYEAR=2000
DGENRE=SOCA
TTITLE0=SUPERBLUE - PUMP UP
TTITLE1=ROY CAPE FEAT. DERRICK SEALES - MUDD
TTITLE2=ALISON HINDS - CONTROLLER
TTITLE3=BROTHER RESISTANCE - RUN THE VAMPIRE
TTITLE4=KINDRED - A WAH WAH WAH
TTITLE5=RIKKI JAY - GALEEKAY MOREY GODINAA
TTITLE6=GENERAL GRANT - STICKS AND STONES
TTITLE7=KITCHENER - TOCO BAND
TTITLE8=CANAL - LAS CARNAVAL
TTITLE9=BLACK LYRICS - JUMBIE
TTITLE10=DENISE BELFON - BURNIN'
TTITLE11=ANDRE TANKER - D BIG BEAT [AYANA]
TTITLE12=SILHOUTTE - GHETTO PEOPLE CHANT
TTITLE13=SINGING SANDRA - VOICES FROM THE GHETTO
TTITLE14=SHAFT - CARNIVAL REDEMPTION
EXTD=YEAR: 2000
EXTT0=
EXTT1=
EXTT2=
EXTT3=
EXTT4=
EXTT5=
EXTT6=
EXTT7=
EXTT8=
EXTT9=
EXTT10=
EXTT11=
EXTT12=
EXTT13=
EXTT14=
PLAYORDER=
